<?xml version="1.0" encoding="us-ascii" standalone="no"?><svg xmlns="http://www.w3.org/2000/svg" xmlns:xlink="http://www.w3.org/1999/xlink" contentStyleType="text/css" height="1186px" preserveAspectRatio="none" style="width:390px;height:1186px;background:#FFFFFF;" version="1.1" viewBox="0 0 390 1186" width="390px" zoomAndPan="magnify"><defs/><g><!--entity Anonymous--><g id="elem_Anonymous"><ellipse cx="47" cy="597.5" fill="#F1F1F1" rx="8" ry="8" style="stroke:#181818;stroke-width:0.5;"/><path d="M47,605.5 L47,632.5 M34,613.5 L60,613.5 M47,632.5 L34,647.5 M47,632.5 L60,647.5 " fill="none" style="stroke:#181818;stroke-width:0.5;"/><text fill="#000000" font-family="sans-serif" font-size="14" lengthAdjust="spacing" textLength="82" x="6" y="661.9951">Anonymous</text></g><g id="elem_Search books"><ellipse cx="266.3049" cy="627.061" fill="#F1F1F1" rx="70.8049" ry="16.561" style="stroke:#181818;stroke-width:0.5;"/><text fill="#000000" font-family="sans-serif" font-size="14" lengthAdjust="spacing" textLength="95" x="215.8049" y="630.8085">Search books</text></g><g id="elem_View book details"><ellipse cx="266.6107" cy="697.0221" fill="#F1F1F1" rx="80.6107" ry="18.5221" style="stroke:#181818;stroke-width:0.5;"/><text fill="#000000" font-family="sans-serif" font-size="14" lengthAdjust="spacing" textLength="120" x="205.1726" y="700.3348">View book details</text></g><g id="elem_Add book to shopping basket"><ellipse cx="266.4293" cy="777.0859" fill="#F1F1F1" rx="118.4293" ry="26.0859" style="stroke:#181818;stroke-width:0.5;"/><text fill="#000000" font-family="sans-serif" font-size="14" lengthAdjust="spacing" textLength="204" x="164.4293" y="779.9325">Add book to shopping basket</text></g><g id="elem_Create customer account"><ellipse cx="266.4496" cy="487.9899" fill="#F1F1F1" rx="105.4496" ry="23.4899" style="stroke:#181818;stroke-width:0.5;"/><text fill="#000000" font-family="sans-serif" font-size="14" lengthAdjust="spacing" textLength="176" x="178.4496" y="490.8366">Create customer account</text></g><g id="elem_Sign in"><ellipse cx="266.3913" cy="561.1302" fill="#F1F1F1" rx="44.3913" ry="14.6302" style="stroke:#181818;stroke-width:0.5;"/><text fill="#000000" font-family="sans-serif" font-size="14" lengthAdjust="spacing" textLength="46" x="240.3913" y="564.8777">Sign in</text></g><!--entity Customer--><g id="elem_Customer"><ellipse cx="47" cy="864.5" fill="#F1F1F1" rx="8" ry="8" style="stroke:#181818;stroke-width:0.5;"/><path d="M47,872.5 L47,899.5 M34,880.5 L60,880.5 M47,899.5 L34,914.5 M47,899.5 L60,914.5 " fill="none" style="stroke:#181818;stroke-width:0.5;"/><text fill="#000000" font-family="sans-serif" font-size="14" lengthAdjust="spacing" textLength="68" x="13" y="928.9951">Customer</text></g><g id="elem_Order shopping basket items"><ellipse cx="266.5271" cy="1077.8054" fill="#F1F1F1" rx="117.0271" ry="25.8054" style="stroke:#181818;stroke-width:0.5;"/><text fill="#000000" font-family="sans-serif" font-size="14" lengthAdjust="spacing" textLength="201" x="166.0271" y="1080.6521">Order shopping basket items</text></g><g id="elem_Edit shopping basket"><ellipse cx="266.3872" cy="1159.7774" fill="#F1F1F1" rx="91.8872" ry="20.7774" style="stroke:#181818;stroke-width:0.5;"/><text fill="#000000" font-family="sans-serif" font-size="14" lengthAdjust="spacing" textLength="146" x="193.3872" y="1162.6241">Edit shopping basket</text></g><g id="elem_Search own orders"><ellipse cx="266.3592" cy="857.8718" fill="#F1F1F1" rx="84.8592" ry="19.3718" style="stroke:#181818;stroke-width:0.5;"/><text fill="#000000" font-family="sans-serif" font-size="14" lengthAdjust="spacing" textLength="130" x="201.3592" y="860.7185">Search own orders</text></g><g id="elem_View order details"><ellipse cx="266.4455" cy="931.1891" fill="#F1F1F1" rx="81.4455" ry="18.6891" style="stroke:#181818;stroke-width:0.5;"/><text fill="#000000" font-family="sans-serif" font-size="14" lengthAdjust="spacing" textLength="122" x="204.3109" y="934.409">View order details</text></g><g id="elem_Cancel order"><ellipse cx="266.74" cy="1001.048" fill="#F1F1F1" rx="68.24" ry="16.048" style="stroke:#181818;stroke-width:0.5;"/><text fill="#000000" font-family="sans-serif" font-size="14" lengthAdjust="spacing" textLength="88" x="219.74" y="1004.7956">Cancel order</text></g><!--entity Admin--><g id="elem_Admin"><ellipse cx="47" cy="254.5" fill="#F1F1F1" rx="8" ry="8" style="stroke:#181818;stroke-width:0.5;"/><path d="M47,262.5 L47,289.5 M34,270.5 L60,270.5 M47,289.5 L34,304.5 M47,289.5 L60,304.5 " fill="none" style="stroke:#181818;stroke-width:0.5;"/><text fill="#000000" font-family="sans-serif" font-size="14" lengthAdjust="spacing" textLength="43" x="25.5" y="318.9951">Admin</text></g><g id="elem_Add book to system"><ellipse cx="266.3518" cy="26.0704" fill="#F1F1F1" rx="88.3518" ry="20.0704" style="stroke:#181818;stroke-width:0.5;"/><text fill="#000000" font-family="sans-serif" font-size="14" lengthAdjust="spacing" textLength="138" x="197.3518" y="28.917">Add book to system</text></g><g id="elem_Edit book details"><ellipse cx="266.6551" cy="99.031" fill="#F1F1F1" rx="78.1551" ry="18.031" style="stroke:#181818;stroke-width:0.5;"/><text fill="#000000" font-family="sans-serif" font-size="14" lengthAdjust="spacing" textLength="114" x="207.2659" y="102.6166">Edit book details</text></g><g id="elem_Delete book"><ellipse cx="266.6678" cy="167.8336" fill="#F1F1F1" rx="67.1678" ry="15.8336" style="stroke:#181818;stroke-width:0.5;"/><text fill="#000000" font-family="sans-serif" font-size="14" lengthAdjust="spacing" textLength="85" x="221.1678" y="171.5811">Delete book</text></g><g id="elem_Search customer orders"><ellipse cx="266.3371" cy="242.1674" fill="#F1F1F1" rx="101.3371" ry="22.6674" style="stroke:#181818;stroke-width:0.5;"/><text fill="#000000" font-family="sans-serif" font-size="14" lengthAdjust="spacing" textLength="167" x="182.8371" y="245.0141">Search customer orders</text></g><g id="elem_View customer order details"><ellipse cx="266.3359" cy="324.9672" fill="#F1F1F1" rx="112.8359" ry="24.9672" style="stroke:#181818;stroke-width:0.5;"/><text fill="#000000" font-family="sans-serif" font-size="14" lengthAdjust="spacing" textLength="192" x="170.3359" y="327.8139">View customer order details</text></g><g id="elem_Cancel customer order"><ellipse cx="266.2599" cy="406.852" fill="#F1F1F1" rx="97.2599" ry="21.852" style="stroke:#181818;stroke-width:0.5;"/><text fill="#000000" font-family="sans-serif" font-size="14" lengthAdjust="spacing" textLength="158" x="187.2599" y="409.6987">Cancel customer order</text></g><!--link Anonymous to Search books--><g id="link_Anonymous_Search books"><path d="M88.15,627 C118.1,627 153.78,627 189.21,627 " fill="none" id="Anonymous-to-Search books" style="stroke:#181818;stroke-width:1.0;"/><polygon fill="#181818" points="195.21,627,186.21,623,190.21,627,186.21,631,195.21,627" style="stroke:#181818;stroke-width:1.0;"/></g><!--link Anonymous to View book details--><g id="link_Anonymous_View book details"><path d="M88.29,641.01 C106.49,647.26 128.28,654.63 148,661 C170.54,668.28 189.878,674.2795 211.058,680.6995 " fill="none" id="Anonymous-to-View book details" style="stroke:#181818;stroke-width:1.0;"/><polygon fill="#181818" points="216.8,682.44,209.3473,676.0012,212.015,680.9896,207.0267,683.6573,216.8,682.44" style="stroke:#181818;stroke-width:1.0;"/></g><!--link Anonymous to Add book to shopping basket--><g id="link_Anonymous_Add book to shopping basket"><path d="M76.5,665.02 C94.86,687.33 120.39,714.66 148,733 C162.06,742.34 172.7919,747.8753 188.7019,754.0953 " fill="none" id="Anonymous-to-Add book to shopping basket" style="stroke:#181818;stroke-width:1.0;"/><polygon fill="#181818" points="194.29,756.28,187.3643,749.2776,189.6332,754.4594,184.4514,756.7284,194.29,756.28" style="stroke:#181818;stroke-width:1.0;"/></g><!--link Anonymous to Create customer account--><g id="link_Anonymous_Create customer account"><path d="M79.48,588.87 C97.74,568.77 122.18,545.02 148,529 C163.24,519.54 175.2828,513.909 192.2628,507.909 " fill="none" id="Anonymous-to-Create customer account" style="stroke:#181818;stroke-width:1.0;"/><polygon fill="#181818" points="197.92,505.91,188.1015,505.137,193.2057,507.5758,190.7669,512.68,197.92,505.91" style="stroke:#181818;stroke-width:1.0;"/></g><!--link Anonymous to Sign in--><g id="link_Anonymous_Sign in"><path d="M88.2,612.7 C106.38,606.4 128.19,599.06 148,593 C175.7,584.53 201.595,577.4773 225.085,571.3373 " fill="none" id="Anonymous-to-Sign in" style="stroke:#181818;stroke-width:1.0;"/><polygon fill="#181818" points="230.89,569.82,221.171,568.226,226.0525,571.0845,223.1941,575.966,230.89,569.82" style="stroke:#181818;stroke-width:1.0;"/></g><!--link Customer to Search books--><g id="link_Customer_Search books"><path d="M54.01,855.87 C64.16,804.22 89.6,712.58 148,661 C163.28,647.5 177.803,640.8207 197.263,635.9007 " fill="none" id="Customer-to-Search books" style="stroke:#181818;stroke-width:1.0;"/><polygon fill="#181818" points="203.08,634.43,193.3741,632.758,198.2325,635.6556,195.335,640.514,203.08,634.43" style="stroke:#181818;stroke-width:1.0;"/></g><!--link Customer to View book details--><g id="link_Customer_View book details"><path d="M62.6,855.88 C78.39,819.54 106.94,765.78 148,734 C163.64,721.89 177.564,715.3937 196.324,709.8737 " fill="none" id="Customer-to-View book details" style="stroke:#181818;stroke-width:1.0;"/><polygon fill="#181818" points="202.08,708.18,192.3169,706.8832,197.2833,709.5914,194.5751,714.5578,202.08,708.18" style="stroke:#181818;stroke-width:1.0;"/></g><!--link Customer to Add book to shopping basket--><g id="link_Customer_Add book to shopping basket"><path d="M81.18,866.23 C99.95,851.45 124.35,833.75 148,821 C163.91,812.42 176.2462,806.898 193.2362,800.488 " fill="none" id="Customer-to-Add book to shopping basket" style="stroke:#181818;stroke-width:1.0;"/><polygon fill="#181818" points="198.85,798.37,189.0174,797.8044,194.1719,800.135,191.8413,805.2894,198.85,798.37" style="stroke:#181818;stroke-width:1.0;"/></g><!--link Customer to Order shopping basket items--><g id="link_Customer_Order shopping basket items"><path d="M66.67,932.13 C83.86,963.67 112.11,1007.58 148,1035 C160.51,1044.56 169.8043,1049.9087 184.6543,1055.8887 " fill="none" id="Customer-to-Order shopping basket items" style="stroke:#181818;stroke-width:1.0;"/><polygon fill="#181818" points="190.22,1058.13,183.3657,1051.0577,185.5819,1056.2623,180.3773,1058.4786,190.22,1058.13" style="stroke:#181818;stroke-width:1.0;"/></g><!--link Customer to Edit shopping basket--><g id="link_Customer_Edit shopping basket"><path d="M54.75,932.36 C65.62,982.85 91.73,1071.12 148,1122 C160.72,1133.5 171.2937,1139.5857 187.6137,1145.1757 " fill="none" id="Customer-to-Edit shopping basket" style="stroke:#181818;stroke-width:1.0;"/><polygon fill="#181818" points="193.29,1147.12,186.0718,1140.4194,188.5598,1145.4998,183.4794,1147.9878,193.29,1147.12" style="stroke:#181818;stroke-width:1.0;"/></g><!--link Customer to Search own orders--><g id="link_Customer_Search own orders"><path d="M81.03,888.53 C111.69,883.46 152.3704,876.7192 191.0604,870.3192 " fill="none" id="Customer-to-Search own orders" style="stroke:#181818;stroke-width:1.0;"/><polygon fill="#181818" points="196.98,869.34,187.4479,866.8624,192.047,870.156,188.7535,874.7552,196.98,869.34" style="stroke:#181818;stroke-width:1.0;"/></g><!--link Customer to View order details--><g id="link_Customer_View order details"><path d="M81.03,899.62 C112.64,905 155.2848,912.2546 194.6448,918.9446 " fill="none" id="Customer-to-View order details" style="stroke:#181818;stroke-width:1.0;"/><polygon fill="#181818" points="200.56,919.95,192.3575,914.4985,195.6307,919.1122,191.017,922.3853,200.56,919.95" style="stroke:#181818;stroke-width:1.0;"/></g><!--link Customer to Cancel order--><g id="link_Customer_Cancel order"><path d="M81.26,922.85 C99.86,937.77 124.07,955.26 148,967 C168.97,977.29 187.7987,983.5169 209.0887,988.9869 " fill="none" id="Customer-to-Cancel order" style="stroke:#181818;stroke-width:1.0;"/><polygon fill="#181818" points="214.9,990.48,207.1785,984.3662,210.0573,989.2358,205.1877,992.1146,214.9,990.48" style="stroke:#181818;stroke-width:1.0;"/></g><!--link Admin to Search books--><g id="link_Admin_Search books"><path d="M49.31,322.21 C53.63,387.16 71.88,519.23 148,593 C162.49,607.04 176.5834,613.8678 195.9034,618.7578 " fill="none" id="Admin-to-Search books" style="stroke:#181818;stroke-width:1.0;"/><polygon fill="#181818" points="201.72,620.23,193.9766,614.144,196.8729,619.0032,192.0137,621.8994,201.72,620.23" style="stroke:#181818;stroke-width:1.0;"/></g><!--link Admin to View book details--><g id="link_Admin_View book details"><path d="M53.38,322.26 C66.16,408.03 100.86,612.03 148,661 C160.8,674.3 172.6153,680.9884 190.2653,686.3084 " fill="none" id="Admin-to-View book details" style="stroke:#181818;stroke-width:1.0;"/><polygon fill="#181818" points="196.01,688.04,188.5473,681.6129,191.2227,686.597,186.2386,689.2725,196.01,688.04" style="stroke:#181818;stroke-width:1.0;"/></g><!--link Admin to Add book to system--><g id="link_Admin_Add book to system"><path d="M55.23,245.89 C66.53,196.73 93.02,111.76 148,63 C161.2,51.29 172.3938,45.1446 189.2238,39.6746 " fill="none" id="Admin-to-Add book to system" style="stroke:#181818;stroke-width:1.0;"/><polygon fill="#181818" points="194.93,37.82,185.1343,36.7978,190.1749,39.3655,187.6071,44.406,194.93,37.82" style="stroke:#181818;stroke-width:1.0;"/></g><!--link Admin to Edit book details--><g id="link_Admin_Edit book details"><path d="M64.19,245.84 C80.55,211.73 108.98,162.82 148,134 C163.84,122.3 177.789,116.0963 196.539,110.8863 " fill="none" id="Admin-to-Edit book details" style="stroke:#181818;stroke-width:1.0;"/><polygon fill="#181818" points="202.32,109.28,192.5776,107.8355,197.5025,110.6186,194.7194,115.5435,202.32,109.28" style="stroke:#181818;stroke-width:1.0;"/></g><!--link Admin to Delete book--><g id="link_Admin_Delete book"><path d="M68.77,262.63 C87.82,244.16 117.6,217.99 148,202 C168.49,191.22 187.013,184.9307 208.213,179.5707 " fill="none" id="Admin-to-Delete book" style="stroke:#181818;stroke-width:1.0;"/><polygon fill="#181818" points="214.03,178.1,204.3241,176.4281,209.1825,179.3256,206.285,184.184,214.03,178.1" style="stroke:#181818;stroke-width:1.0;"/></g><!--link Admin to Search customer orders--><g id="link_Admin_Search customer orders"><path d="M68.85,279.97 C96.39,274.66 140.4987,266.1371 183.1887,257.8971 " fill="none" id="Admin-to-Search customer orders" style="stroke:#181818;stroke-width:1.0;"/><polygon fill="#181818" points="189.08,256.76,179.485,254.5382,184.1706,257.7076,181.0012,262.3932,189.08,256.76" style="stroke:#181818;stroke-width:1.0;"/></g><!--link Admin to View customer order details--><g id="link_Admin_View customer order details"><path d="M68.85,287.93 C94.43,292.75 133.4639,300.1084 173.9339,307.7384 " fill="none" id="Admin-to-View customer order details" style="stroke:#181818;stroke-width:1.0;"/><polygon fill="#181818" points="179.83,308.85,171.7269,303.2518,174.9166,307.9236,170.2447,311.1133,179.83,308.85" style="stroke:#181818;stroke-width:1.0;"/></g><!--link Admin to Cancel customer order--><g id="link_Admin_Cancel customer order"><path d="M68.54,304.94 C87.65,323.44 117.68,350.02 148,367 C164.92,376.48 178.7782,382.3317 197.0082,388.4117 " fill="none" id="Admin-to-Cancel customer order" style="stroke:#181818;stroke-width:1.0;"/><polygon fill="#181818" points="202.7,390.31,195.4279,383.668,197.9568,388.7281,192.8968,391.2571,202.7,390.31" style="stroke:#181818;stroke-width:1.0;"/></g><!--SRC=[XP6nZi8m44JxVCMMfE07A92YtDKKIFJ6tajM9Bl8tWZnzpWXGiGuN3rFipCx7Vufg82dfbLmvD4g2HV5hcBXUoz3sC5skuVD4OstBPn5Bg7yb4-4jqa4Xsgeop6LSqya7WojNA_43PnDkA1cwDgZKGGx19KUFHXhPU0SUQI6WRYCgUkPpeTEr5pc1FaUEO4FtiMS2GQas6USVntf_vPp0RanoEY-rc8IrslKXYrsJsfyK-LwufLXtwJig6_wuZlt48icm5JoYy4FTXWt7eaoc-gr_glzHxubid9eVi2IBOi7]--></g></svg>